<svg width="166" height="17" fill="none" xmlns="http://www.w3.org/2000/svg"><path d="M10.48 11.03V16h-3.9v-4.86L.9.6h3.92l3.71 6.71L12.15.6h3.92l-5.59 10.43ZM26.15.47c2.39 0 4.37.75 5.96 2.24a7.3 7.3 0 0 1 2.37 5.57c0 2.24-.8 4.12-2.4 5.63a8.27 8.27 0 0 1-5.93 2.27 8.31 8.31 0 0 1-5.94-2.25 7.5 7.5 0 0 1-2.38-5.65c0-2.25.8-4.1 2.38-5.59A8.36 8.36 0 0 1 26.15.47Zm.04 3.28c-1.2 0-2.23.44-3.08 1.32a4.43 4.43 0 0 0-1.28 3.23c0 1.3.43 2.38 1.28 3.28a4.17 4.17 0 0 0 6.1 0 4.62 4.62 0 0 0 1.25-3.28c0-1.3-.42-2.37-1.26-3.23a3.96 3.96 0 0 0-3.01-1.32ZM52.06.6v8.93a6.4 6.4 0 0 1-1.9 4.86c-1.26 1.2-2.97 1.79-5.12 1.79-2.17 0-3.9-.6-5.2-1.79a6.36 6.36 0 0 1-1.9-4.86V.6h3.9v8.93c0 1.03.3 1.85.89 2.47.6.6 1.38.9 2.33.9.94 0 1.69-.3 2.24-.9.58-.6.86-1.43.86-2.47V.6h3.9ZM65.8 16l-2.29-4.33h-3.08V16h-3.91V.6h6.88c2.04 0 3.62.47 4.73 1.4a4.85 4.85 0 0 1 1.68 3.97c0 2.37-.94 4.02-2.8 4.95L70.25 16H65.8Zm-5.37-7.41h2.97c.85 0 1.51-.22 1.98-.64.47-.43.7-1.04.7-1.85 0-.8-.23-1.4-.7-1.8a2.91 2.91 0 0 0-1.98-.62h-2.97v4.9ZM74.09.6h6.62c2.42 0 4.38.71 5.9 2.13a7.26 7.26 0 0 1 2.28 5.57c0 2.27-.77 4.13-2.3 5.57-1.55 1.42-3.56 2.13-6.03 2.13h-6.47V.6ZM78 3.72v9.16h2.8a3.8 3.8 0 0 0 2.95-1.26 4.7 4.7 0 0 0 1.16-3.3 4.6 4.6 0 0 0-1.2-3.3 4.03 4.03 0 0 0-3.09-1.3H78ZM104.66 3.68h-8.14v3.06h7.35v3.08h-7.35v3.1h8.38V16H92.6V.6h12.06v3.08ZM115 .42c2.3 0 4.32.58 6.07 1.72l-1.48 3.06c-.8-.47-1.67-.85-2.6-1.15-.92-.3-1.7-.46-2.32-.46-1.14 0-1.7.38-1.7 1.12 0 .49.28.88.84 1.17.55.3 1.23.55 2.02.77.8.2 1.6.46 2.4.77.8.3 1.49.78 2.05 1.45.55.68.83 1.53.83 2.55 0 1.49-.58 2.64-1.74 3.48a7.47 7.47 0 0 1-4.42 1.23 11.3 11.3 0 0 1-7.04-2.46l1.52-3.02c.78.68 1.7 1.24 2.75 1.68 1.05.42 2 .63 2.81.63.64 0 1.13-.1 1.48-.33.35-.23.53-.57.53-1 0-.43-.2-.79-.62-1.06-.4-.3-.9-.51-1.5-.64a24.79 24.79 0 0 1-3.91-1.34c-.6-.28-1.1-.72-1.52-1.32-.4-.62-.6-1.35-.6-2.2a4 4 0 0 1 1.68-3.37A7.24 7.24 0 0 1 115 .42ZM128.8 16h-3.92V.6h3.92V16ZM143.77 8.17h3.39v6c-.84.6-1.85 1.07-3.04 1.46-1.17.36-2.3.55-3.37.55-2.34 0-4.3-.75-5.87-2.25a7.5 7.5 0 0 1-2.35-5.63c0-2.23.8-4.1 2.42-5.59a8.58 8.58 0 0 1 6.07-2.24 9.91 9.91 0 0 1 6.3 2.29l-2.2 2.66a6.26 6.26 0 0 0-1.94-1.21 5.59 5.59 0 0 0-2.18-.46 4.43 4.43 0 0 0-4.47 4.55 4.5 4.5 0 0 0 4.51 4.6c.82 0 1.73-.25 2.73-.75V8.17ZM165.75 16h-3.45l-7.09-9.48V16h-3.67V.6h3.45l7.1 9.5V.6h3.66V16Z" fill="#fff"/></svg>