<svg width="243" height="42" xmlns="http://www.w3.org/2000/svg">
  <path d="M83.85 23.03V28h-3.9v-4.86l-5.7-10.54h3.92l3.72 6.71 3.63-6.71h3.92l-5.59 10.43ZM99.84 12.47c2.4 0 4.38.75 5.97 2.24a7.3 7.3 0 0 1 2.37 5.57c0 2.24-.8 4.12-2.4 5.63a8.27 8.27 0 0 1-5.94 2.27 8.31 8.31 0 0 1-5.94-2.25 7.5 7.5 0 0 1-2.37-5.65c0-2.25.8-4.1 2.37-5.59a8.36 8.36 0 0 1 5.94-2.22Zm.05 3.28c-1.2 0-2.23.44-3.08 1.32a4.43 4.43 0 0 0-1.28 3.23c0 1.3.43 2.38 1.28 3.28a4.17 4.17 0 0 0 6.1 0 4.62 4.62 0 0 0 1.25-3.28c0-1.3-.42-2.37-1.26-3.23a3.97 3.97 0 0 0-3.01-1.32ZM126.08 12.6v8.93a6.4 6.4 0 0 1-1.89 4.86c-1.26 1.2-2.97 1.79-5.12 1.79-2.17 0-3.9-.6-5.2-1.79a6.36 6.36 0 0 1-1.91-4.86V12.6h3.92v8.93c0 1.03.29 1.85.88 2.47.6.6 1.37.9 2.33.9.94 0 1.68-.3 2.24-.9.57-.6.86-1.43.86-2.47V12.6h3.9ZM140.16 28l-2.29-4.33h-3.08V28h-3.91V12.6h6.88c2.04 0 3.62.47 4.73 1.4a4.86 4.86 0 0 1 1.67 3.97c0 2.37-.93 4.02-2.79 4.95L144.6 28h-4.44Zm-5.37-7.41h2.97c.85 0 1.51-.22 1.98-.64.47-.43.7-1.04.7-1.85 0-.8-.23-1.4-.7-1.8a2.91 2.91 0 0 0-1.98-.62h-2.97v4.9ZM148.78 12.6h6.62c2.42 0 4.38.71 5.9 2.13a7.26 7.26 0 0 1 2.28 5.57c0 2.27-.77 4.13-2.3 5.57-1.55 1.42-3.56 2.13-6.04 2.13h-6.46V12.6Zm3.91 3.12v9.16h2.8c1.2 0 2.18-.42 2.94-1.26a4.7 4.7 0 0 0 1.17-3.3 4.6 4.6 0 0 0-1.21-3.3 4.03 4.03 0 0 0-3.08-1.3h-2.62ZM179.68 15.68h-8.14v3.06h7.34v3.08h-7.34v3.1h8.38V28h-12.3V12.6h12.06v3.08ZM190.34 12.42c2.3 0 4.33.58 6.07 1.72l-1.47 3.06c-.8-.47-1.67-.85-2.6-1.15-.92-.3-1.7-.46-2.33-.46-1.13 0-1.7.38-1.7 1.12 0 .49.29.88.84 1.17.56.3 1.24.55 2.03.77.8.2 1.6.46 2.4.77.8.3 1.49.78 2.04 1.45.56.68.84 1.53.84 2.55 0 1.49-.58 2.64-1.74 3.48a7.47 7.47 0 0 1-4.42 1.23 11.3 11.3 0 0 1-7.04-2.46l1.52-3.02c.77.68 1.7 1.24 2.75 1.68 1.05.42 2 .63 2.81.63.63 0 1.13-.1 1.48-.33.35-.23.53-.57.53-1 0-.43-.21-.79-.62-1.06-.4-.3-.9-.51-1.5-.64a24.9 24.9 0 0 1-3.91-1.34c-.6-.28-1.11-.72-1.52-1.32-.4-.62-.6-1.35-.6-2.2a4 4 0 0 1 1.68-3.37 7.24 7.24 0 0 1 4.46-1.28ZM204.48 28h-3.92V12.6h3.92V28ZM219.78 20.17h3.38v6c-.83.6-1.84 1.07-3.03 1.46-1.17.36-2.3.55-3.37.55-2.34 0-4.3-.75-5.87-2.25a7.5 7.5 0 0 1-2.35-5.63c0-2.23.8-4.1 2.42-5.59a8.58 8.58 0 0 1 6.07-2.24 9.92 9.92 0 0 1 6.29 2.29l-2.2 2.66a6.26 6.26 0 0 0-1.94-1.21 5.59 5.59 0 0 0-2.18-.46 4.43 4.43 0 0 0-4.47 4.55 4.5 4.5 0 0 0 4.52 4.6c.82 0 1.73-.25 2.73-.75v-3.98ZM242.09 28h-3.46l-7.08-9.48V28h-3.67V12.6h3.45l7.1 9.5v-9.5h3.66V28Z" fill="#fff" />
  <path fill-rule="evenodd" clip-rule="evenodd" d="M8.33 0H50c4.6 0 8.33 2.65 8.33 5.92v29.63c0 3.27-3.73 5.92-8.33 5.92H8.33c-4.6 0-8.33-2.65-8.33-5.92V5.92C0 2.65 3.73 0 8.33 0Z" fill="#fff" />
  <path d="M21.91 23.03V28h-3.9v-4.86l-5.7-10.54h3.93l3.71 6.7 3.63-6.7h3.92l-5.59 10.43ZM30.24 12.6h6.63c2.42 0 4.38.71 5.9 2.13a7.26 7.26 0 0 1 2.28 5.57c0 2.27-.77 4.13-2.3 5.57C41.2 27.29 39.18 28 36.7 28h-6.47V12.6Zm3.92 3.12v9.16h2.8a3.8 3.8 0 0 0 2.94-1.26 4.7 4.7 0 0 0 1.17-3.3 4.6 4.6 0 0 0-1.21-3.3 4.03 4.03 0 0 0-3.08-1.3h-2.62Z" fill="#27211D" />
</svg>