<svg display="none" xmlns="http://www.w3.org/2000/svg">
  <symbol id="twitter">
    <path d="m19.3 3.1-.05-.02a3.92 3.92 0 0 0-3.01-1.16l-.04-.08.02-.01c1.05-.24 1.67-.5 1.86-.77.06-.22-.01-.35-.25-.38-.52.07-1.01.18-1.44.36.55-.36.76-.6.63-.73-.54.01-1.13.29-1.73.85.22-.4.31-.62.26-.64-.3.2-.55.41-.77.65-.47.53-.84 1.02-1.13 1.46l-.02.03a13.15 13.15 0 0 0-1.55 3.67l-.11.1h-.03a5.86 5.86 0 0 0-1.61-1.4c-.74-.5-1.63-.96-2.65-1.42a21.94 21.94 0 0 0-3.36-1.44c-.01 1.3.62 2.32 1.85 3.07v.01c-.43 0-.85.07-1.27.2.08 1.2.92 2.02 2.5 2.47v.03a1.77 1.77 0 0 0-1.53.64c.52 1.03 1.44 1.52 2.78 1.49-.26.14-.47.28-.6.44-.26.27-.34.58-.26.92.3.53.8.77 1.56.73l.04.05-.01.03a5.74 5.74 0 0 1-4.74 1.86h-.03c-1.13 0-2.34-.55-3.65-1.63 1.31 1.9 3.06 3.28 5.22 4.16 2.47.82 4.95.9 7.41.18h.04a11.8 11.8 0 0 0 6.1-4.32 8.65 8.65 0 0 0 1.45-3.26c1.25.04 2.15-.32 2.71-1.1l-.01-.03c-.43.16-1.24.11-2.44-.14v-.14c1.32-.15 2.11-.58 2.36-1.3-.93.37-1.83.38-2.73.04A6.04 6.04 0 0 0 19.3 3.1" />
  </symbol>
  <symbol id="facebook">
    <path d="M7.88 8.18H5.7v7.86H2.47V8.18H.93V5.4h1.54V3.6c0-1.28.6-3.3 3.26-3.3l2.39.02v2.7H6.38c-.28 0-.68.14-.68.75V5.4h2.46l-.28 2.78Z" />
  </symbol>
  <symbol id="instagram">
    <path d="M13.23 16.04H3.69c-1.66 0-3-1.36-3-3.04V3.35a3.02 3.02 0 0 1 3-3.04h9.54c1.65 0 3 1.36 3 3.04V13a3.03 3.03 0 0 1-3 3.04Zm-2.55-9.48a2.72 2.72 0 0 0-4.96 1.61 2.75 2.75 0 0 0 2.74 2.77 2.76 2.76 0 0 0 2.22-4.38Zm3.75-4.1v-.34H11.8l.02 2.67h2.62V2.46Zm.29 4.1h-2.33a4.29 4.29 0 0 1-3.93 5.92 4.28 4.28 0 0 1-3.94-5.92H2.2V13c0 .83.67 1.5 1.49 1.5h9.54a1.5 1.5 0 0 0 1.49-1.5V6.56Z" />
  </symbol>
  <symbol id="mail">
    <path d="M17.47 16.43H3.2a2.68 2.68 0 0 1-2.67-2.67V3.06C.54 1.57 1.74.37 3.2.37h14.27c1.48 0 2.68 1.2 2.68 2.67v10.7c0 1.48-1.2 2.68-2.68 2.68Zm-.86-12.05a.9.9 0 0 0-1.22-.3l-5.08 3.05L5.45 4.2a.9.9 0 1 0-.92 1.53l5.81 3.5 5.97-3.63a.9.9 0 0 0 .3-1.22Z" />
  </symbol>
  <symbol id="tel">
    <path d="M3.435,7.325 C4.719,9.849 6.788,11.909 9.312,13.203 L11.274,11.241 C11.515,11.000 11.872,10.919 12.184,11.026 C13.183,11.356 14.262,11.534 15.368,11.534 C15.859,11.534 16.260,11.936 16.260,12.427 L16.260,15.539 C16.260,16.030 15.859,16.431 15.368,16.431 C6.993,16.431 0.206,9.644 0.206,1.269 C0.206,0.778 0.607,0.377 1.098,0.377 L4.219,0.377 C4.710,0.377 5.111,0.778 5.111,1.269 C5.111,2.384 5.290,3.454 5.620,4.452 C5.718,4.765 5.646,5.113 5.397,5.363 L3.435,7.325 L3.435,7.325 Z" />
  </symbol>
  <symbol id="search">
    <path d="M16.36 14.97h1.05l6.68 6.7-2 1.98-6.68-6.67v-1.06l-.37-.37a8.7 8.7 0 1 1 .94-.94l.38.36ZM9.39 2.93a6.01 6.01 0 1 0-.02 12.03 6.01 6.01 0 0 0 .02-12.03Z" />
  </symbol>
  <symbol id="arrow-left">
    <path d="M1.82 32.88 27.02 58.2a4.09 4.09 0 0 0 5.8 0 4.14 4.14 0 0 0 0-5.83l-22.29-22.4 22.29-22.4a4.14 4.14 0 0 0 0-5.84 4.08 4.08 0 0 0-5.8 0L1.81 27.05a4.12 4.12 0 0 0 0 5.83Z" />
  </symbol>
  <symbol id="arrow-right">
    <path d="M32.8 32.88 7.62 58.2a4.09 4.09 0 0 1-5.8 0 4.14 4.14 0 0 1 0-5.83l22.28-22.4L1.82 7.57a4.14 4.14 0 0 1 0-5.84 4.08 4.08 0 0 1 5.8 0L32.8 27.05a4.12 4.12 0 0 1 0 5.83Z" />
  </symbol>
</svg>