<svg width="96" height="96" viewBox="0 0 96 96" fill="none" xmlns="http://www.w3.org/2000/svg">
<path d="M28.1349 56.1486V71H16.7132V56.4771L0 25H11.4863L22.3918 45.0429L33.0392 25H44.5255L28.1349 56.1486Z" fill="#27211D"/>
<path d="M52.5715 25H71.995C79.0932 25 84.8579 27.1248 89.2889 31.3743C93.763 35.6238 96 41.1657 96 48C96 54.7905 93.7415 60.3324 89.2244 64.6257C84.7073 68.8752 78.8136 71 71.5432 71H52.5715V25ZM64.0578 34.3314V61.6686H72.2531C75.7807 61.6686 78.663 60.42 80.9001 57.9229C83.1801 55.3819 84.3201 52.0962 84.3201 48.0657C84.3201 44.0352 83.1371 40.7495 80.771 38.2086C78.4049 35.6238 75.3935 34.3314 71.7368 34.3314H64.0578Z" fill="#27211D"/>
</svg>
