<svg width="383" height="129" xmlns="http://www.w3.org/2000/svg">
  <path d="m322.5 122.2.8 1.84.06-.03.06-.03-.92-1.78Zm60-37.43a2 2 0 0 0-1.93-2.06l-17.99-.62a2 2 0 1 0-.14 4l16 .54-.56 16a2 2 0 0 0 4 .13l.62-17.99Zm-31 22.44.92 1.77.13-.07.12-.08-1.17-1.63ZM2 6.7l1.03 1.71h-.01a.8.8 0 0 1 .05-.02l.22-.12c.2-.1.53-.27.97-.47.9-.4 2.27-.94 4.13-1.5L7.25 2.48a37.9 37.9 0 0 0-5.81 2.25 12.61 12.61 0 0 0-.46.25L2 6.7Zm12.31-1.76c3.33-.57 7.4-.97 12.23-.95l.02-4c-5.07-.03-9.37.4-12.92 1l.67 3.95Zm18.35-.7c3.72.28 7.81.8 12.26 1.66L45.68 2c-4.6-.9-8.84-1.44-12.72-1.73l-.3 4Zm18.31 2.99c3.75.91 7.73 2.06 11.94 3.47l1.27-3.8c-4.3-1.44-8.4-2.61-12.26-3.56l-.95 3.89Zm17.8 5.56a194.7 194.7 0 0 1 11.55 4.79l1.65-3.65a198.77 198.77 0 0 0-11.78-4.88l-1.41 3.74Zm17.24 7.45a247.9 247.9 0 0 1 11.04 5.73l1.93-3.5c-3.86-2.12-7.6-4.06-11.22-5.82L86 20.26Zm16.52 8.83a307.6 307.6 0 0 1 10.67 6.5l2.15-3.38c-3.7-2.36-7.3-4.55-10.82-6.58l-2 3.46ZM118.49 39c3.36 2.23 6.8 4.59 10.3 7.09l2.33-3.26a375.64 375.64 0 0 0-10.42-7.16L118.49 39ZM133.9 49.8c3.27 2.41 6.61 4.94 10.02 7.6l2.46-3.15c-3.43-2.69-6.8-5.24-10.11-7.67l-2.37 3.22Zm14.88 11.45c1.63 1.3 3.28 2.64 4.94 4l2.54-3.08a502.54 502.54 0 0 0-4.98-4.04l-2.5 3.12Zm4.94 4a434.9 434.9 0 0 0 4.85 3.94l2.5-3.12c-1.6-1.27-3.2-2.57-4.8-3.9l-2.55 3.09Zm9.64 7.72c3.33 2.59 6.62 5.06 9.87 7.42l2.35-3.23a396.31 396.31 0 0 1-9.77-7.35l-2.45 3.16ZM178.3 84c3.46 2.43 6.87 4.73 10.22 6.91l2.18-3.35a345.4 345.4 0 0 1-10.1-6.84l-2.3 3.28Zm15.43 10.24c3.6 2.25 7.14 4.36 10.62 6.34l1.98-3.48a301.53 301.53 0 0 1-10.48-6.26l-2.12 3.4Zm16 9.33c3.76 2.03 7.44 3.91 11.04 5.64l1.74-3.6c-3.54-1.7-7.17-3.55-10.87-5.56l-1.9 3.52Zm16.64 8.26a225.6 225.6 0 0 0 11.42 4.78l1.44-3.73a221.5 221.5 0 0 1-11.22-4.7l-1.64 3.65Zm17.25 6.94c4.08 1.44 8.02 2.68 11.82 3.75l1.08-3.85a186.58 186.58 0 0 1-11.57-3.68l-1.33 3.78Zm17.82 5.33c4.27 1.03 8.33 1.85 12.19 2.48l.64-3.95c-3.75-.61-7.71-1.4-11.88-2.42l-.95 3.89Zm18.36 3.35c4.46.53 8.6.8 12.41.9l.1-4c-3.69-.09-7.7-.36-12.04-.87l-.47 3.97Zm18.68.88c4.84-.15 9-.6 12.46-1.15l-.63-3.94c-3.3.52-7.29.95-11.95 1.09l.12 4Zm18.66-2.39a52.93 52.93 0 0 0 6.02-1.86l.09-.03.03-.02h.01l-.8-1.84-.8-1.83-.06.02-.24.1a49.18 49.18 0 0 1-5.2 1.58l.95 3.89Zm6.27-1.97 4.83-2.5-1.84-3.55-4.83 2.5 1.84 3.55Zm9.67-5 9.66-5-1.84-3.55-9.66 5 1.84 3.55Zm14.5-7.5 4.83-2.5-1.84-3.55-4.83 2.5 1.84 3.55Zm3.91-4.28 1.17 1.63.02-.02.07-.05.27-.2a543.1 543.1 0 0 0 4.6-3.35l-2.38-3.22c-1.48 1.09-2.7 1.99-3.57 2.61l-1 .73-.26.19-.07.05h-.01v.01h-.01l1.17 1.63Zm11.05-5.64c3.1-2.32 6.55-4.93 9.77-7.46l-2.46-3.15c-3.2 2.5-6.63 5.1-9.7 7.4l2.4 3.2Zm14.6-11.31c1.82-1.5 3.45-2.9 4.72-4.08l-2.74-2.93a98.92 98.92 0 0 1-4.53 3.91l2.54 3.1Z" fill="#D77D49" />
</svg>