<svg width="450" height="117" xmlns="http://www.w3.org/2000/svg">
  <path d="m266.67 12.04 1.06 1.7.26-.16.2-.23-1.52-1.3Zm-56.5 66 .14 2-.14-2Zm-52-23 1.5-1.32-.02-.03-.03-.03-1.45 1.38ZM17.8 115.84a2 2 0 0 0 2.67-.92l7.9-16.17a2 2 0 0 0-3.6-1.76l-7.02 14.38-14.37-7.03a2 2 0 0 0-1.76 3.6l16.18 7.9Zm2.37-69.3 1.8.86-1.8-.86Zm.4 66.85a69.7 69.7 0 0 1-1.59-5.34l-3.87 1a73.82 73.82 0 0 0 1.67 5.64l3.78-1.3Zm-2.81-10.83c-.68-3.48-1.22-7.25-1.58-11.17l-3.99.36c.38 4.06.94 7.96 1.64 11.57l3.93-.76Zm-1.97-16.8c-.17-3.72-.17-7.51.03-11.3l-3.99-.2c-.21 3.91-.21 7.84-.04 11.67l4-.18Zm.5-16.9a80.71 80.71 0 0 1 1.97-11.02l-3.87-1a84.69 84.69 0 0 0-2.08 11.58l3.98.44Zm3.58-16.35a51.75 51.75 0 0 1 2.1-5.1l-3.6-1.73a55.75 55.75 0 0 0-2.27 5.5l3.77 1.33Zm2.1-5.1a69.38 69.38 0 0 1 2.48-4.7l-3.47-2a73.4 73.4 0 0 0-2.61 4.97l3.6 1.72Zm5.31-9.2a64.22 64.22 0 0 1 6.68-8.22l-2.89-2.78a68.21 68.21 0 0 0-7.09 8.74l3.3 2.26Zm10.5-11.87a55.75 55.75 0 0 1 8.57-6.14l-2.01-3.46a59.76 59.76 0 0 0-9.18 6.58l2.63 3.02Zm13.25-8.57a53.63 53.63 0 0 1 9.96-3.4l-.92-3.9c-3.8.9-7.37 2.14-10.7 3.66l1.66 3.64Zm15.15-4.37c3.33-.47 6.85-.66 10.56-.54l.13-4c-3.93-.13-7.68.08-11.24.57l.55 3.97Zm15.85-.16c1.73.2 3.49.45 5.29.77l.7-3.94c-1.88-.34-3.73-.6-5.55-.8l-.44 3.97Zm5.29.77c1.76.32 3.53.71 5.3 1.17l1-3.86c-1.85-.5-3.72-.9-5.6-1.25l-.7 3.94Zm10.5 2.74a98.4 98.4 0 0 1 10.15 4.08l1.7-3.62a102.4 102.4 0 0 0-10.57-4.25l-1.27 3.79Zm15.08 6.52a141.6 141.6 0 0 1 9.54 5.49l2.12-3.39a145.66 145.66 0 0 0-9.81-5.65l-1.86 3.55Zm14.16 8.5c3.17 2.14 6.17 4.32 8.97 6.45l2.43-3.17a190 190 0 0 0-9.17-6.6l-2.23 3.32Zm13.3 9.87c3.22 2.6 6.06 5.05 8.42 7.19l2.68-2.98c-2.41-2.17-5.3-4.67-8.58-7.32l-2.51 3.11Zm12.48 10.94a149.72 149.72 0 0 1 3.64 3.58l.19.2.04.04.01.02 1.45-1.38 1.45-1.38-.02-.02-.05-.05-.2-.21-.78-.8c-.68-.68-1.68-1.67-2.97-2.9l-2.76 2.9Zm5.33 2.46-1.5 1.32.01.01.02.02a8.59 8.59 0 0 1 .31.35l.94.97c.81.83 2 2 3.55 3.37l2.66-2.99a69 69 0 0 1-4.42-4.3l-.05-.06h-.01v-.01l-1.5 1.32Zm8.48 10.28a82.57 82.57 0 0 0 11.24 7.21l1.87-3.53a78.6 78.6 0 0 1-10.69-6.86l-2.42 3.18Zm17.3 10.08a62.78 62.78 0 0 0 12.88 3.85l.71-3.94a58.79 58.79 0 0 1-12.05-3.6l-1.54 3.69Zm19.58 4.66c2.21.13 4.47.13 6.78-.02l-.27-4c-2.13.15-4.22.15-6.27.03l-.24 3.99Zm6.78-.02c2.19-.15 4.3-.57 6.35-1.22l-1.22-3.81c-1.75.56-3.55.91-5.4 1.04l.27 3.99Zm12.2-3.8c3.52-2.01 6.78-4.68 9.8-7.76l-2.85-2.8a41.28 41.28 0 0 1-8.93 7.07l1.98 3.48Zm13.93-12.36a106.6 106.6 0 0 0 7.15-9.9l-3.36-2.18c-2.17 3.37-4.47 6.6-6.88 9.54l3.09 2.54Zm10.34-15.07c2.1-3.53 4.06-7.1 5.9-10.54l-3.52-1.9a272.58 272.58 0 0 1-5.82 10.4l3.44 2.04Zm8.72-15.85c2.05-3.89 3.93-7.46 5.68-10.5l-3.47-2c-1.8 3.12-3.7 6.77-5.74 10.63l3.53 1.87Zm8.75-15.43c1.4-2 2.56-3.22 3.48-3.79l-2.1-3.4c-1.65 1.01-3.19 2.8-4.65 4.9l3.27 2.3Zm2.42-5.49 1.52 1.3v.01l.03-.04.16-.17c.15-.15.39-.39.72-.69a25.7 25.7 0 0 1 3.06-2.36l-2.2-3.33a29.65 29.65 0 0 0-4.46 3.6 12.65 12.65 0 0 0-.3.34c-.02 0-.02.02-.03.02v.01h-.01l1.51 1.31Zm10.2-4.53a39.68 39.68 0 0 1 10.43-3l-.59-3.95a43.69 43.69 0 0 0-11.47 3.3l1.64 3.65Zm15.89-3.48c3.3-.11 6.96.1 11 .74l.63-3.95c-4.29-.69-8.2-.9-11.76-.79l.13 4Zm16.45 1.83a87.9 87.9 0 0 1 10.64 3.32l1.42-3.74a91.91 91.91 0 0 0-11.12-3.47l-.94 3.89Zm15.84 5.45c3.2 1.41 6.56 3.07 10.07 5l1.93-3.51c-3.6-1.98-7.07-3.69-10.39-5.15l-1.61 3.66ZM340 19.1c3.05 1.82 6.22 3.85 9.5 6.1l2.25-3.3a185.1 185.1 0 0 0-9.7-6.24L340 19.11Zm14.12 9.36a232 232 0 0 1 4.58 3.41l2.43-3.18c-1.57-1.2-3.13-2.35-4.66-3.47l-2.35 3.24Zm4.58 3.41c1.8 1.37 3.56 2.69 5.3 3.95l2.35-3.24c-1.71-1.24-3.45-2.53-5.22-3.89l-2.43 3.18Zm10.69 7.75c3.86 2.64 7.56 5 11.1 7.1l2.04-3.45c-3.46-2.04-7.09-4.35-10.89-6.95l-2.25 3.3Zm16.85 10.34c4.23 2.28 8.23 4.17 11.99 5.72l1.52-3.7c-3.62-1.5-7.5-3.32-11.62-5.54l-1.9 3.52Zm18.2 8.05a75.94 75.94 0 0 0 13.01 3.22l.6-3.96a71.9 71.9 0 0 1-12.33-3.05l-1.28 3.79Zm19.75 3.83c5.44.15 9.92-.6 13.54-1.73l-1.2-3.82c-3.18 1-7.23 1.69-12.23 1.55l-.11 4Zm19.93-4.53c1.88-1.1 3.26-2.2 4.18-3.04a16.5 16.5 0 0 0 1.32-1.36l.08-.1.03-.03v-.01h.01v-.01l-1.58-1.23a249.75 249.75 0 0 1-1.58-1.23h.01l-.03.04-.17.19a20.52 20.52 0 0 1-4.3 3.33l2.02 3.45Z" fill="#D77D49" />
</svg>