<svg width="416" height="76" xmlns="http://www.w3.org/2000/svg">
  <path d="M407.9 75.66a2 2 0 0 0 2.5-1.3l5.41-17.18a2 2 0 0 0-3.81-1.2l-4.8 15.26-15.27-4.8a2 2 0 0 0-1.2 3.82l17.17 5.4ZM227 13.76l-.7-1.88-.1.03-.09.05.89 1.8Zm-225 16a617.42 617.42 0 0 0-1.42 1.4.33.33 0 0 1 .01.01l.02.02a8.96 8.96 0 0 0 .31.3 55.12 55.12 0 0 0 4.6 3.72l2.35-3.24a51.17 51.17 0 0 1-4.4-3.58l-.05-.04L2 29.74Zm8.72 8.88a98.4 98.4 0 0 0 10.98 5.73l1.64-3.65a94.39 94.39 0 0 1-10.54-5.5l-2.08 3.42Zm16.69 8.1c3.54 1.35 7.45 2.65 11.74 3.83l1.06-3.86c-4.17-1.14-7.95-2.4-11.37-3.71l-1.43 3.73Zm17.72 5.32c3.78.86 7.81 1.61 12.1 2.22l.57-3.96a146.6 146.6 0 0 1-11.78-2.16l-.89 3.9Zm18.22 2.98c3.9.4 8 .7 12.3.84l.13-4c-4.2-.14-8.2-.43-12.02-.82l-.41 3.98Zm18.4.95c3.95 0 8.06-.1 12.32-.35l-.23-4c-4.19.25-8.21.36-12.08.35l-.01 4Zm18.38-.78c3.95-.34 8.02-.79 12.22-1.36l-.54-3.96c-4.14.56-8.14 1-12.02 1.33l.34 3.99Zm18.23-2.26c3.9-.63 7.92-1.36 12.04-2.22l-.81-3.91c-4.06.84-8.02 1.56-11.87 2.18l.64 3.95Zm18.06-3.53c3.87-.88 7.82-1.86 11.87-2.95l-1.04-3.87c-4 1.08-7.9 2.05-11.72 2.92l.9 3.9Zm17.72-4.59c3.8-1.1 7.7-2.3 11.67-3.59l-1.24-3.8a358.22 358.22 0 0 1-11.54 3.55l1.1 3.84Zm17.55-5.56c3.75-1.29 7.57-2.66 11.45-4.13l-1.4-3.74a404.77 404.77 0 0 1-11.35 4.1l1.3 3.77Zm17.11-6.31a461 461 0 0 0 11.34-4.64l-1.56-3.68a455.8 455.8 0 0 1-11.24 4.6l1.46 3.72Zm16.89-7.03c3.65-1.61 7.36-3.3 11.13-5.05l-1.7-3.63a511.47 511.47 0 0 1-11.04 5.01l1.6 3.67Zm16.63-7.66c1.84-.9 3.7-1.8 5.57-2.73l-1.78-3.58c-1.86.92-3.7 1.82-5.53 2.7l1.73 3.6Zm5.37-2.64c1.85-.69 3.7-1.34 5.51-1.95l-1.28-3.8c-1.86.64-3.73 1.3-5.61 2l1.38 3.75Zm10.93-3.7c3.77-1.17 7.46-2.2 11.1-3.09l-.96-3.88c-3.7.9-7.48 1.95-11.32 3.14l1.18 3.82Zm16.75-4.38c3.85-.82 7.62-1.48 11.31-2l-.56-3.97c-3.78.54-7.64 1.22-11.58 2.06l.83 3.9Zm16.98-2.7c3.91-.42 7.73-.68 11.47-.79l-.12-4c-3.83.12-7.76.38-11.77.8l.42 3.98ZM289.53 4c3.92.04 7.74.24 11.45.6l.38-3.99c-3.83-.36-7.75-.57-11.79-.61l-.04 4Zm17.14 1.25c3.87.54 7.63 1.23 11.26 2.07l.9-3.9c-3.75-.86-7.62-1.58-11.61-2.13l-.55 3.96Zm16.8 3.47a127.4 127.4 0 0 1 10.9 3.56l1.41-3.74a131.4 131.4 0 0 0-11.23-3.67l-1.07 3.85Zm16.2 5.69c3.6 1.54 7.04 3.21 10.33 4.98l1.9-3.53c-3.4-1.82-6.95-3.54-10.65-5.13l-1.58 3.68Zm15.32 7.8c3.37 2 6.56 4.1 9.6 6.25l2.31-3.26a141.9 141.9 0 0 0-9.87-6.43L355 22.22Zm14.19 9.66c3.13 2.43 6.06 4.9 8.8 7.39l2.68-2.96c-2.8-2.55-5.81-5.1-9.04-7.6l-2.44 3.17Zm12.97 11.33c2.9 2.83 5.53 5.63 7.9 8.32l3-2.65a159.25 159.25 0 0 0-8.1-8.53l-2.8 2.86Zm11.62 12.7a149.5 149.5 0 0 1 6.92 9.16l3.29-2.29a153.7 153.7 0 0 0-7.11-9.4l-3.1 2.53Zm10.1 13.94a95.36 95.36 0 0 1 2.7 4.52l.12.24.03.05v.02a454.82 454.82 0 0 1 3.55-1.85v-.01l-.01-.02-.04-.07-.15-.27a98.06 98.06 0 0 0-2.82-4.74l-3.37 2.13Z" fill="#D77D49" />
</svg>