<svg width="187" height="158" fill="none" xmlns="http://www.w3.org/2000/svg"><path d="m131.5 120 .5-2-.5 2ZM9.3 157a2 2 0 0 0 2.7.7l15.7-8.7a2 2 0 1 0-2-3.5l-14 7.8-7.7-14a2 2 0 1 0-3.5 2L9.3 157ZM44 108.5l1 1.8-1-1.8ZM11 156l2 .5a9.3 9.3 0 0 1 0-.4 66.8 66.8 0 0 1 2-5.6l-3.8-1.4a108.9 108.9 0 0 0-2 6.2l-.1.1 1.9.6Zm6.4-11.5C19 141 21 137 23.3 133l-3.5-2c-2.4 4.1-4.4 8.3-6 11.9l3.6 1.6Zm9.3-17a66 66 0 0 1 8.1-9.8l-2.8-2.9a70 70 0 0 0-8.6 10.5l3.3 2.2Zm13-14c1.6-1.2 3.4-2.3 5.2-3.2l-1.8-3.6c-2 1-4 2.3-5.9 3.7l2.4 3.2Zm5.2-3.2c1.8-1 3.5-1.7 5.3-2.3l-1.3-3.7c-2 .6-3.9 1.4-5.8 2.4l1.8 3.6Zm10.7-3.5c3.3-.5 7-.5 11.5 0l.4-4c-4.7-.5-8.7-.5-12.4 0l.5 4Zm17.3.7c3.5.6 7.3 1.4 11.7 2.4l.9-4c-4.5-1-8.4-1.7-12-2.3l-.6 4Zm17.5 3.8c3.5.8 7.4 1.8 11.6 3l1-4-11.7-3-1 4Zm17.4 4.4 11.6 3.1 1-3.8-11.6-3.1-1 3.8Zm17.4 4.7 5.8 1.5 1-3.8-5.8-1.6-1 3.9Zm5.8 1.5c1.5.4 3.9.5 6.6.4l-.2-4c-2.6.1-4.5 0-5.4-.2l-1 3.8Zm12.8-.2c3.7-.5 7.8-1.3 12-2.5l-1-3.8c-4 1.1-8 1.9-11.6 2.4l.6 4Zm18-4.3c3.9-1.5 7.7-3.2 11.2-5.4l-2.1-3.4c-3.2 2-6.8 3.6-10.5 5l1.3 3.8Zm16.3-9.1c3.4-3 6-6.5 7.5-10.6l-3.8-1.3a20.7 20.7 0 0 1-6.3 8.9l2.6 3Zm8.6-17.2c0-3.8-1-8-3.2-12.4l-3.6 1.8c2 4 2.8 7.5 2.8 10.6h4Zm-6.4-17.9a65.5 65.5 0 0 0-3.8-5l-3 2.6 3.5 4.7 3.3-2.3Zm-3.8-5a80 80 0 0 1-3.8-5l-3.3 2.2c1.2 1.8 2.6 3.5 4 5.4l3.1-2.6Zm-7.2-10.5c-2.3-4-3.8-8-4.7-11.6l-3.9 1c1 4 2.7 8.2 5.1 12.6l3.5-2ZM163.6 40c-.3-4.5.2-8.5 1.3-12.2l-3.8-1.2a37.2 37.2 0 0 0-1.5 13.7l4-.3Zm3.7-18c2-4 4.6-7.4 7.2-10.2l-3-2.7c-2.7 3-5.6 6.7-7.8 11.1l3.6 1.8ZM179 7.4a49.8 49.8 0 0 1 4.9-3.6L183 2l-1-1.7a6.6 6.6 0 0 0-.5.3 37.2 37.2 0 0 0-5 3.8l2.6 3Z" fill="#D77D49"/></svg>