<svg width="144" height="157" fill="none" xmlns="http://www.w3.org/2000/svg"><path d="M127 155.6c.8.8 2 .8 2.8.1l13.3-12.1a2 2 0 0 0-2.7-3l-11.8 10.8-10.8-11.8a2 2 0 0 0-3 2.7l12.2 13.3Zm-6-79.9-1.8.8 1.8-.8ZM1 9.7l1 1.8a18.6 18.6 0 0 1 1.2-.7c.9-.4 2.1-1 3.8-1.6L5.5 5.5A62.2 62.2 0 0 0 0 8l1 1.7Zm11.2-2.3c3.1-1 6.8-1.9 11-2.5l-.6-4c-4.4.7-8.3 1.7-11.5 2.7l1.1 3.8Zm16.6-3.2C32.3 4 36 4 40 4.2l.3-4C36 0 32 0 28.4.2l.4 4Zm16.7.6c3.5.6 7.2 1.4 10.9 2.6l1.2-3.8C53.7 2.4 50 1.5 46.1 1l-.6 4Zm16.1 4.6a74 74 0 0 1 10 5.1l2.1-3.4a78 78 0 0 0-10.5-5.4l-1.6 3.7Zm14.7 8.2c3 2 5.8 4.4 8.7 7l2.7-2.9c-3-2.8-6-5.2-9-7.4l-2.4 3.3Zm12.8 11c2.5 2.6 5 5.4 7.4 8.5l3.2-2.4c-2.6-3.3-5.2-6.2-7.8-8.9l-2.8 2.8Zm10.8 13c2.2 3 4.3 6.1 6.3 9.5l3.4-2c-2-3.5-4.2-6.8-6.4-9.8l-3.3 2.3Zm9.2 14.4c1.8 3.2 3.6 6.5 5.3 10l3.6-1.7-5.4-10.3-3.5 2Zm7.7 15.2 2.4 5.3 3.6-1.6-2.3-5.4-3.7 1.7Zm2.4 5.3c.7 1.8 1.4 3.8 2 6l3.9-1.1c-.7-2.3-1.4-4.5-2.3-6.5l-3.6 1.6Zm3.6 12.3c.8 4 1.5 8.4 2 12.9l4-.5c-.5-4.6-1.2-9-2-13.2l-4 .8Zm2.7 19.4.9 13 4-.1-.9-13.3-4 .4Zm1.1 19.7c.2 4.8.2 9.3.2 13.1h4c0-3.9 0-8.4-.2-13.3l-4 .2Zm0 19.7a337.1 337.1 0 0 1 0 6v.4l-.1.1 2 .1 2 .1v-.4a192.5 192.5 0 0 0 .2-6.2l-4-.1Z" fill="#D77D49"/></svg>