<svg width="125" height="19" viewBox="0 0 125 19" fill="none" xmlns="http://www.w3.org/2000/svg">
<path d="M9.06402 18.8039C7.31983 18.5098 4.80497 17.3335 3.44613 16.1572C2.30024 15.1736 1.15436 13.328 0.809575 11.8981C0.667607 11.3404 0.647326 10.9449 0.687888 10.1945C0.769013 8.89653 0.951544 8.23739 1.67153 6.76701C2.22926 5.63126 2.36109 5.43859 3.2636 4.52593C5.13961 2.62964 7.52265 1.52432 10.8488 1.00715C12.2279 0.794197 14.9354 0.713072 16.4768 0.834759C17.643 0.936165 18.2311 1.05785 20.6344 1.71699L21.3037 1.89952L21.7093 1.63587C22.3583 1.19982 23.3521 0.855041 24.3864 0.702932C25.6439 0.51026 27.7024 0.51026 28.5137 0.702932C29.1221 0.8449 29.2032 0.8449 30.339 0.581245C31.3632 0.348011 31.7688 0.307449 33.2088 0.307449C35.1152 0.297308 35.825 0.418995 37.8633 1.07813C39.3235 1.55474 40.3376 2.05163 41.4936 2.8933C41.9499 3.2178 42.386 3.49159 42.4671 3.49159C42.5482 3.49159 43.0248 3.30906 43.5217 3.07583C46.209 1.83868 48.0039 1.26066 49.9204 1.00715C52.6888 0.642088 55.2443 0.966587 56.9377 1.88938C59.7872 3.45103 61.2779 5.75295 61.3185 8.68358C61.3388 9.81932 61.1664 10.5596 60.6289 11.6243C58.9659 14.92 55.9845 16.8873 51.7863 17.4349C48.7847 17.8304 45.8946 17.5262 42.9437 16.5223C40.7229 15.7617 40.0638 15.4676 38.421 14.4941L36.9608 13.622L35.825 13.977C33.229 14.7781 30.6635 14.7172 28.5339 13.7944C27.1751 13.2063 25.6743 12.0198 25.0456 11.0463C24.8022 10.6711 24.64 10.5292 24.4473 10.5089C23.778 10.4582 22.1251 9.42384 21.2834 8.55175C20.1477 7.35516 19.813 6.7163 19.6812 5.46901C19.6001 4.79973 19.813 3.78567 20.0868 3.47131C20.2389 3.3192 20.1984 3.28878 19.5494 3.09611C17.7038 2.54852 15.5134 2.18346 13.6374 2.10233C10.8488 1.99079 8.44544 2.64993 6.0624 4.17101C5.14975 4.74903 4.65286 5.19521 3.89231 6.10787C2.69573 7.54783 2.05687 9.15004 2.03659 10.7421C2.02645 11.746 2.21912 12.3443 2.87826 13.3482C4.37906 15.6299 7.22857 17.222 10.4533 17.5769C12.9377 17.8608 16.6796 16.8569 18.1804 15.5082C19.448 14.3724 20.0666 12.9223 19.8333 11.6649C19.6914 10.9044 19.448 10.5292 18.6266 9.77876C17.0954 8.39964 15.0571 7.76078 12.5321 7.88247C9.65217 8.0143 7.59363 9.31229 7.62405 10.9652C7.65447 12.3342 8.67867 13.2063 10.6865 13.5916C11.4978 13.7539 11.731 13.7539 12.5017 13.6525C13.7692 13.4699 15.2599 12.6891 15.2599 12.2125C15.2599 11.9184 14.7529 11.3911 14.2661 11.168C13.9619 11.0362 13.4853 10.9551 12.8059 10.9246L11.802 10.8638L11.8324 10.448L11.8628 10.0323L13.0797 10.0424C14.5906 10.0424 15.2396 10.2249 15.8988 10.7928C16.6796 11.4824 16.7709 12.3342 16.1624 13.2266C15.5844 14.0784 14.4588 14.626 12.7552 14.9099C11.6194 15.0924 11.0414 15.0924 10.0477 14.8998C8.49614 14.6057 7.12716 13.6727 6.56943 12.537C6.19423 11.7765 6.18409 10.6509 6.53901 9.7382C7.05618 8.39964 8.54684 7.14221 10.3417 6.53377C11.2037 6.24983 11.5383 6.18899 12.5321 6.14843C15.4222 6.03688 17.7342 6.82785 19.5291 8.54161C20.5939 9.55567 20.9893 10.1337 21.1313 10.9348C21.3646 12.2125 21.1719 13.8553 20.6851 14.6969C20.2795 15.3966 19.5899 16.2282 18.9612 16.7555C17.8458 17.6783 15.7365 18.5605 13.8909 18.8546C12.6538 19.0574 10.4127 19.0371 9.06402 18.8039ZM52.1717 15.711C54.2505 15.4372 56.451 14.4941 57.5969 13.3787C58.6109 12.3849 59.047 11.7258 59.5033 10.4683C59.8481 9.48468 59.9089 9.20075 59.9089 8.51119C59.9089 6.33096 58.4994 4.16087 56.4307 3.1671C54.4026 2.20374 52.6685 1.9198 50.4275 2.20374C48.8354 2.40655 48.1053 2.6195 45.9453 3.53216C45.0631 3.90736 44.2417 4.25214 44.12 4.2927C43.9375 4.36369 43.9882 4.41439 44.5257 4.68818C44.8603 4.86057 45.6918 5.3169 46.3712 5.71238L47.5983 6.43237L48.2878 6.11801C49.6974 5.47915 51.3401 5.21549 52.6787 5.40817C53.7637 5.57042 54.2302 5.74281 54.8893 6.23969C56.2076 7.24361 56.38 8.93709 55.3051 10.4379C54.9096 10.9855 53.7739 11.8373 52.9221 12.2226C51.6951 12.7804 50.681 12.973 48.9774 12.9528C46.6653 12.9426 45.3977 12.6283 43.1364 11.5128L42.0615 10.9754L41.4733 11.3607C41.1387 11.5635 40.5404 11.888 40.1348 12.0807C39.3641 12.4356 39.2931 12.5471 39.7799 12.6485C39.932 12.679 40.4187 12.9122 40.8548 13.1759C43.1871 14.555 45.8034 15.4981 48.3689 15.8935C48.8354 15.9747 50.9751 15.8631 52.1717 15.711ZM34.3749 12.9528C34.7096 12.8716 35.0442 12.7702 35.1253 12.7297C35.2166 12.6688 34.7806 12.3038 33.6854 11.5128C32.8133 10.8942 32.0527 10.3872 31.9817 10.3872C31.9209 10.3872 31.5558 10.4785 31.1908 10.5799C30.4607 10.803 28.9903 10.9753 27.6112 11.0159C27.1143 11.0362 26.7188 11.0768 26.7188 11.1173C26.7188 11.168 26.7695 11.1984 26.8303 11.1984C26.8912 11.1984 27.2055 11.381 27.53 11.5939C29.619 13.0237 32.1237 13.5206 34.3749 12.9528ZM39.4452 11.0362C40.9359 10.2858 40.946 10.2757 40.3984 9.92073C40.1551 9.76862 39.5061 9.31229 38.9686 8.89653L37.9748 8.15627L37.4982 8.3895C37.2244 8.52133 36.5653 8.80526 36.0177 9.01822C35.4802 9.23117 35.0645 9.44412 35.1152 9.49482C35.3079 9.6875 38.1371 11.6041 38.2284 11.6041C38.2892 11.6041 38.8368 11.3506 39.4452 11.0362ZM51.7153 11.239C52.5266 11.0261 53.5812 10.4582 54.1389 9.94101C54.8386 9.29201 55.0009 8.3895 54.5547 7.73036C53.8651 6.70616 51.8674 6.3411 49.9407 6.87855L49.0788 7.11179L49.4641 7.28418C50.3869 7.66952 51.1982 7.85205 51.979 7.85205C52.77 7.85205 52.7801 7.85205 52.9322 8.16641C53.1452 8.56189 53.0336 8.69372 52.3441 8.92695C51.9384 9.05878 51.6342 9.07906 50.9142 9.0385C50.0016 8.97765 48.3081 8.61259 47.3954 8.28809L46.929 8.12584L45.6715 8.87625C44.982 9.29201 44.3228 9.65707 44.2214 9.70778C44.12 9.74834 44.049 9.79904 44.0693 9.81932C44.0896 9.8396 44.5561 10.0424 45.1037 10.2757C47.8518 11.4114 49.8799 11.7055 51.7153 11.239ZM29.0815 9.61651C29.7103 9.52525 30.2984 9.42384 30.3897 9.38328C30.5114 9.34272 29.9029 8.86611 28.2297 7.66952C26.952 6.75686 25.8365 5.99632 25.7656 5.9659C25.4208 5.83407 25.4309 9.06892 25.7757 9.4644C25.8264 9.53539 27.1954 9.75848 27.6112 9.76862C27.7937 9.77876 28.463 9.70778 29.0815 9.61651ZM43.1465 8.91681C43.2175 8.82555 43.755 8.48077 44.333 8.13598C44.911 7.7912 45.3673 7.47685 45.3572 7.43628C45.2963 7.28418 42.4874 5.3169 42.386 5.35746C42.1528 5.44873 39.8914 6.96982 39.932 7.01038C40.0537 7.12193 42.9032 9.06892 42.9539 9.06892C42.9944 9.06892 43.0755 8.99794 43.1465 8.91681ZM24.0011 8.02444C23.9504 6.95968 24.1431 6.0673 24.498 5.71238C24.6095 5.60084 24.6907 5.47915 24.6602 5.45887C24.5791 5.37774 21.4355 3.79581 21.3544 3.79581C21.182 3.79581 21.0096 4.71861 21.0705 5.28648C21.1922 6.48307 22.2265 7.92303 23.4738 8.64301C23.778 8.8154 24.0315 8.96751 24.0417 8.96751C24.0518 8.96751 24.0315 8.54161 24.0011 8.02444ZM34.811 8.0143C35.4093 7.77092 36.1394 7.49713 36.4335 7.39572C36.7377 7.30446 36.9405 7.18277 36.8898 7.14221C36.8492 7.10164 35.6425 6.25998 34.2127 5.27634C31.3632 3.3192 29.5987 2.31529 29.1728 2.42683C28.8584 2.50796 27.8951 3.11639 27.4286 3.53216C27.236 3.70455 26.9622 3.9175 26.8202 4.00876L26.5667 4.17101L27.6821 4.73889C28.3007 5.05325 29.8522 6.00646 31.1299 6.87855C32.4178 7.7405 33.5231 8.45034 33.5941 8.45034C33.6651 8.46048 34.2127 8.25767 34.811 8.0143ZM40.0942 5.27634L41.5443 4.53608L40.4897 3.95806C37.6402 2.40655 36.4233 1.92994 34.5777 1.66629C33.8882 1.57502 31.8905 1.63587 31.8905 1.75755C31.8905 1.78797 32.286 2.02121 32.7727 2.27472C33.8375 2.82232 35.4397 3.83637 37.2143 5.09381C37.9444 5.61098 38.563 6.02674 38.5934 6.02674C38.6238 6.02674 39.3033 5.6921 40.0942 5.27634ZM25.9582 2.98456C26.2422 2.70063 26.6377 2.35585 26.8405 2.20374C27.0534 2.06177 27.1954 1.89952 27.1548 1.83868C27.1244 1.77783 26.6579 1.75755 25.9177 1.79812C25.0354 1.83868 24.5386 1.90966 23.9098 2.11247C23.4434 2.26458 23.0682 2.41669 23.0682 2.45725C23.0783 2.52824 25.147 3.45103 25.3498 3.48145C25.4106 3.48145 25.6844 3.25836 25.9582 2.98456Z" fill="#E9C188"/>
<path d="M111.23 18.8445C109.486 18.5504 107.255 17.6073 106.221 16.7251C105.633 16.2079 104.933 15.3663 104.548 14.697C104.061 13.8553 103.868 12.2126 104.102 10.9348C104.244 10.1439 104.619 9.576 105.704 8.53152C107.499 6.80762 109.801 6.02679 112.762 6.15862C113.816 6.20932 114.11 6.26003 114.982 6.56424C116.159 6.99015 116.899 7.45662 117.72 8.28814C118.39 8.9777 118.765 9.69769 118.927 10.6306C119.282 12.7297 117.609 14.4942 114.81 14.9606C113.867 15.1229 112.356 14.9809 111.251 14.6463C108.858 13.8959 107.935 12.03 109.344 10.7827C109.993 10.2149 110.652 10.0425 112.153 10.0323H113.37L113.4 10.4481L113.431 10.8639L112.427 10.9247C111.748 10.9551 111.271 11.0362 110.967 11.1681C110.48 11.3912 109.973 11.9185 109.973 12.2126C109.973 12.6993 111.443 13.47 112.721 13.6424C113.482 13.7539 113.715 13.7438 114.546 13.5917C116.574 13.1962 117.599 12.314 117.609 10.945C117.629 9.3022 115.56 8.01435 112.701 7.88252C110.804 7.79125 109.324 8.09547 107.813 8.89658C107.154 9.24136 106.038 10.225 105.724 10.732C105.389 11.2593 105.278 12.0402 105.42 12.8514C105.623 14.119 106.85 15.6198 108.249 16.3195C110.105 17.2423 113.046 17.8102 114.871 17.5769C115.956 17.4451 117.923 16.8569 118.816 16.4108C120.742 15.4373 122.476 13.6525 123.024 12.0807C123.541 10.6002 122.953 8.18674 121.685 6.53382C120.57 5.09386 119.373 4.15078 117.538 3.28883C116.311 2.70068 115.449 2.43703 114.029 2.21393C111.971 1.87929 108.563 2.23421 105.684 3.09616C105.035 3.28883 104.994 3.31926 105.146 3.47137C105.318 3.66404 105.613 4.70852 105.613 5.11414C105.602 5.77328 105.298 6.79748 104.933 7.33493C104.426 8.11575 103.544 9.01827 102.844 9.49487C102.165 9.96134 101.07 10.4887 100.745 10.5191C100.593 10.5292 100.41 10.7117 100.197 11.0464C99.589 11.9895 98.0781 13.1759 96.7192 13.7742C94.5694 14.7274 91.8619 14.7883 89.2558 13.9466L88.2721 13.6221L87.1769 14.2711C85.4125 15.3257 85.2097 15.4271 84.155 15.8429C80.1191 17.4451 76.9958 17.9014 73.4162 17.4248C69.2078 16.8671 66.2772 14.9404 64.5939 11.6143C64.0463 10.5292 63.9043 9.91064 63.9144 8.75461C63.9246 5.87468 65.4152 3.47137 68.1126 1.99084C69.4613 1.25058 71.1447 0.855095 73.0004 0.855095C75.8803 0.855095 77.807 1.34184 81.5692 3.02518C82.1472 3.27869 82.6847 3.49165 82.7759 3.49165C82.857 3.49165 83.2221 3.26855 83.5973 2.99476C85.088 1.88943 86.5685 1.22016 88.7893 0.652283C89.8338 0.388628 90.3104 0.317644 91.5678 0.277081C92.9875 0.226378 93.1903 0.24666 94.61 0.540736C96.0601 0.834813 96.1513 0.844954 96.6888 0.702986C97.4088 0.510315 99.4572 0.510315 100.816 0.702986C101.891 0.855095 102.844 1.17959 103.534 1.63592L103.929 1.89957L104.548 1.72719C107.732 0.844954 108.847 0.692845 111.646 0.784111C116.341 0.936219 119.911 2.26464 122.182 4.7288C122.811 5.40822 123.075 5.8037 123.561 6.78734C123.896 7.45662 124.241 8.278 124.322 8.61264C124.575 9.56586 124.636 11.1275 124.433 11.8881C124.079 13.2773 123.105 14.8998 121.979 15.9848C121.077 16.8367 119.16 17.9217 117.528 18.4794C116.078 18.9763 113.056 19.1589 111.23 18.8445ZM78.2532 15.6198C80.4943 15.1026 82.3906 14.3522 84.368 13.186C84.7838 12.9325 85.3212 12.679 85.5544 12.6182L85.9601 12.5066L84.9054 11.9692C84.3274 11.6852 83.6987 11.3303 83.5162 11.2086L83.1815 10.9653L82.208 11.452C79.8453 12.6182 78.5676 12.9427 76.2555 12.9528C74.9981 12.963 74.5823 12.9325 73.8522 12.75C71.0433 12.0402 69.2078 10.3061 69.2078 8.36927C69.2078 7.62901 69.6844 6.74677 70.3436 6.23975C71.0027 5.74286 71.4692 5.57047 72.5542 5.40822C73.8928 5.21555 75.5355 5.4792 76.9451 6.11806L77.6346 6.43242L78.669 5.81384C79.2369 5.4792 80.0582 5.03302 80.4841 4.8302C80.9101 4.62739 81.265 4.43472 81.265 4.4043C81.2751 4.32317 78.3242 3.11645 77.1783 2.72096C75.2212 2.05168 72.6759 1.90972 70.881 2.38632C68.0417 3.12659 66.3583 4.56655 65.5572 6.94959C64.9184 8.83574 65.6586 11.3607 67.3724 13.1151C68.2343 13.9973 69.1368 14.555 70.445 15.0316C71.7024 15.4981 72.2906 15.6401 73.4669 15.7516C74.055 15.8125 74.6939 15.8834 74.8865 15.9037C75.6471 15.995 77.2189 15.853 78.2532 15.6198ZM93.6466 13.1252C95.1779 12.9427 96.2629 12.537 97.6116 11.6447C97.9868 11.4013 98.3417 11.1985 98.4026 11.1985C98.4634 11.1985 98.5141 11.1681 98.5141 11.1174C98.5141 11.0768 98.0476 11.0261 97.4696 11.016C96.2223 10.9754 94.6505 10.7726 93.7886 10.5292L93.1802 10.3568L91.5475 11.5128C90.645 12.1517 89.925 12.679 89.9453 12.6993C90.0771 12.8413 91.5171 13.1151 92.6326 13.2165C92.7238 13.2165 93.1802 13.1759 93.6466 13.1252ZM88.7082 10.4887C89.5296 9.92078 90.1988 9.44417 90.1785 9.42389C90.1583 9.41375 89.7121 9.23122 89.1848 9.01827C88.6575 8.80531 87.9983 8.53152 87.7245 8.39969L87.2276 8.15632L86.457 8.74447C86.031 9.06897 85.3922 9.53544 85.0373 9.76867C84.4694 10.154 84.4187 10.225 84.5505 10.3568C84.8243 10.6306 86.8017 11.6041 87.0045 11.5737C87.1161 11.5534 87.8868 11.0667 88.7082 10.4887ZM76.4076 11.3506C77.6651 11.1782 78.162 11.0464 79.8859 10.367C81.0419 9.91064 81.4272 9.6774 81.0317 9.6774C80.9608 9.6774 80.3118 9.32248 79.5918 8.89658L78.2836 8.10561L77.4724 8.37941C75.1705 9.15009 73.0815 9.27178 72.3514 8.68363C72.1283 8.5011 72.1283 8.49096 72.2906 8.1766C72.4528 7.8521 72.4629 7.8521 73.2742 7.8521C73.9232 7.8521 74.2883 7.79126 75.0488 7.5276C75.5761 7.35521 76.002 7.17268 76.002 7.14226C76.002 7.01043 74.7243 6.70621 73.9638 6.65551C71.4692 6.5034 69.9684 7.63915 70.5768 9.23122C70.9926 10.3163 73.1322 11.4013 75.0387 11.4824C75.211 11.4926 75.8195 11.4317 76.4076 11.3506ZM98.4837 9.66726C98.9197 9.59628 99.3254 9.50501 99.3963 9.45431C99.4572 9.40361 99.589 9.03855 99.6803 8.64306C99.8425 8.00421 99.8425 7.82168 99.731 6.91916C99.6296 6.15862 99.5586 5.92539 99.4572 5.96595C99.3862 5.99637 98.2707 6.76706 96.993 7.66957C94.3565 9.5253 94.4376 9.36305 96.0297 9.61656C97.206 9.79909 97.5305 9.79909 98.4837 9.66726ZM83.8305 8.04477C84.5708 7.5276 85.2198 7.07127 85.2604 7.04085C85.3313 6.98001 83.1917 5.48934 82.8469 5.35751C82.7455 5.31695 79.9366 7.28423 79.8757 7.43633C79.8656 7.48704 80.3219 7.8014 80.9101 8.14618C81.4982 8.49096 82.0255 8.84588 82.0965 8.927C82.1675 9.00812 82.279 9.05883 82.35 9.02841C82.421 8.99798 83.0903 8.56194 83.8305 8.04477ZM102.824 7.79125C103.909 6.73663 104.406 5.35751 104.091 4.25219C104.02 3.99868 103.919 3.79586 103.868 3.79586C103.737 3.79586 100.846 5.26625 100.593 5.45892C100.41 5.60089 100.4 5.61103 100.573 5.62117C100.694 5.62117 100.836 5.79356 100.978 6.10792C101.171 6.51354 101.201 6.76706 101.201 7.76083V8.93714L101.698 8.67349C101.962 8.53152 102.469 8.13603 102.824 7.79125ZM94.2753 6.75692C95.6849 5.82398 97.2364 4.88091 97.7231 4.65781C98.2099 4.43472 98.5952 4.22177 98.5851 4.19135C98.5141 3.96825 96.4454 2.51815 96.0601 2.42689C95.6342 2.31534 93.8292 3.33954 90.9797 5.30681C89.5397 6.31073 88.3431 7.14226 88.3127 7.17268C88.2823 7.2031 88.5459 7.31465 88.9008 7.43633C89.2558 7.55802 89.9757 7.83182 90.503 8.05491C91.0304 8.278 91.5272 8.46053 91.5881 8.46053C91.6591 8.46053 92.8658 7.69999 94.2753 6.75692ZM87.5217 5.44878C89.1949 4.24205 91.4056 2.81223 92.3486 2.32548C92.8962 2.05168 93.3424 1.78803 93.3424 1.75761C93.3424 1.63592 91.3447 1.57508 90.6552 1.66634C88.8096 1.93 87.5521 2.42689 84.6316 4.01896L83.6886 4.53613L85.088 5.26625C85.8688 5.67187 86.5482 6.01665 86.6091 6.01665C86.6699 6.02679 87.0857 5.76314 87.5217 5.44878ZM101.07 2.98462C101.668 2.7311 102.165 2.49787 102.165 2.45731C102.165 2.41674 101.79 2.26464 101.333 2.11253C100.684 1.90972 100.208 1.83873 99.2544 1.78803C98.4533 1.75761 98.0071 1.77789 98.0071 1.83873C98.0071 1.89957 98.1795 2.06182 98.3924 2.20379C98.5952 2.3559 98.9907 2.70068 99.2747 2.98462C99.5484 3.26855 99.8222 3.48151 99.8831 3.47137C99.9338 3.45108 100.471 3.23813 101.07 2.98462Z" fill="#E9C188"/>
</svg>
